HIERARCHY
ROOT Hips
{
	OFFSET 0.00000 0.00000 0.00000
	CHANNELS 6 Xposition Yposition Zposition Zrotation Yrotation Xrotation 
	JOINT LHipJoint
	{
		OFFSET 0 0 0
		CHANNELS 3 Zrotation Yrotation Xrotation
		JOINT LeftUpLeg
		{
			OFFSET 1.42489 -1.84941 0.69647
			CHANNELS 3 Zrotation Yrotation Xrotation
			JOINT LeftLeg
			{
				OFFSET 2.44443 -6.71602 0.00000
				CHANNELS 3 Zrotation Yrotation Xrotation
				JOINT LeftFoot
				{
					OFFSET 2.62838 -7.22137 0.00000
					CHANNELS 3 Zrotation Yrotation Xrotation
					JOINT LeftToeBase
					{
						OFFSET 0.24036 -0.66037 2.29953
						CHANNELS 3 Zrotation Yrotation Xrotation
						End Site
						{
							OFFSET 0.00000 -0.00000 1.19837
						}
					}
				}
			}
		}
	}
	JOINT RHipJoint
	{
		OFFSET 0 0 0
		CHANNELS 3 Zrotation Yrotation Xrotation
		JOINT RightUpLeg
		{
			OFFSET -1.37055 -1.84941 0.69647
			CHANNELS 3 Zrotation Yrotation Xrotation
			JOINT RightLeg
			{
				OFFSET -2.54834 -7.00152 0.00000
				CHANNELS 3 Zrotation Yrotation Xrotation
				JOINT RightFoot
				{
					OFFSET -2.65692 -7.29983 0.00000
					CHANNELS 3 Zrotation Yrotation Xrotation
					JOINT RightToeBase
					{
						OFFSET -0.18839 -0.51760 2.29390
						CHANNELS 3 Zrotation Yrotation Xrotation
						End Site
						{
							OFFSET -0.00000 -0.00000 1.18261
						}
					}
				}
			}
		}
	}
	JOINT LowerBack
	{
		OFFSET 0 0 0
		CHANNELS 3 Zrotation Yrotation Xrotation
		JOINT Spine
		{
			OFFSET 0.05220 2.15489 0.05011
			CHANNELS 3 Zrotation Yrotation Xrotation
			JOINT Spine1
			{
				OFFSET -0.07653 2.14219 -0.05668
				CHANNELS 3 Zrotation Yrotation Xrotation
				JOINT Neck
				{
					OFFSET 0 0 0
					CHANNELS 3 Zrotation Yrotation Xrotation
					JOINT Neck1
					{
						OFFSET 0.01370 1.58638 0.01447
						CHANNELS 3 Zrotation Yrotation Xrotation
						JOINT Head
						{
							OFFSET 0.23548 1.54190 -0.21747
							CHANNELS 3 Zrotation Yrotation Xrotation
							End Site
							{
								OFFSET 0.07132 1.59823 -0.08163
							}
						}
					}
				}
				JOINT LeftShoulder
				{
					OFFSET 0 0 0
					CHANNELS 3 Zrotation Yrotation Xrotation
					JOINT LeftArm
					{
						OFFSET 3.47056 1.45357 -0.58896
						CHANNELS 3 Zrotation Yrotation Xrotation
						JOINT LeftForeArm
						{
							OFFSET 5.19069 -0.00000 0.00000
							CHANNELS 3 Zrotation Yrotation Xrotation
							JOINT LeftHand
							{
								OFFSET 3.30016 -0.00000 0.00000
								CHANNELS 3 Zrotation Yrotation Xrotation
								JOINT LeftFingerBase
								{
									OFFSET 0 0 0
									CHANNELS 3 Zrotation Yrotation Xrotation
									JOINT LeftHandIndex1
									{
										OFFSET 0.70770 -0.00000 0.00000
										CHANNELS 3 Zrotation Yrotation Xrotation
										End Site
										{
											OFFSET 0.57056 -0.00000 0.00000
										}
									}
								}
								JOINT LThumb
								{
									OFFSET 0 0 0
									CHANNELS 3 Zrotation Yrotation Xrotation
									End Site
									{
										OFFSET 0.57928 -0.00000 0.57928
									}
								}
							}
						}
					}
				}
				JOINT RightShoulder
				{
					OFFSET 0 0 0
					CHANNELS 3 Zrotation Yrotation Xrotation
					JOINT RightArm
					{
						OFFSET -2.89018 2.03305 -0.26731
						CHANNELS 3 Zrotation Yrotation Xrotation
						JOINT RightForeArm
						{
							OFFSET -5.23924 -0.00000 0.00000
							CHANNELS 3 Zrotation Yrotation Xrotation
							JOINT RightHand
							{
								OFFSET -3.32953 -0.00000 0.00000
								CHANNELS 3 Zrotation Yrotation Xrotation
								JOINT RightFingerBase
								{
									OFFSET 0 0 0
									CHANNELS 3 Zrotation Yrotation Xrotation
									JOINT RightHandIndex1
									{
										OFFSET -0.60741 -0.00000 0.00000
										CHANNELS 3 Zrotation Yrotation Xrotation
										End Site
										{
											OFFSET -0.48971 -0.00000 0.00000
										}
									}
								}
								JOINT RThumb
								{
									OFFSET 0 0 0
									CHANNELS 3 Zrotation Yrotation Xrotation
									End Site
									{
										OFFSET -0.49719 -0.00000 0.49719
									}
								}
							}
						}
					}
				}
			}
		}
	}
}
MOTION
Frames: 9
Frame Time: .0083333
2.7097 13.1298 10.8367 5.6939 22.7307 29.7582 0.0000 0.0000 0.0000 -2.9019 16.7785 0.8991 0.9612 6.2425 17.4896 1.8153 19.1805 -38.2200 0.7112 -5.3898 -15.0236 0.0000 0.0000 0.0000 -22.4603 16.7160 -94.2289 -15.0098 -19.3922 75.2663 -0.1247 0.0420 -6.6535 -0.1439 2.4446 -6.7359 14.8775 -7.0138 25.1484 3.2009 -5.3533 14.4057 -3.4980 -1.7518 1.5156 -2.2997 -6.6810 6.5799 10.1223 -8.7405 -1.2507 3.9166 -4.5474 -0.9531 -0.0000 -0.0000 0.0000 74.2972 -37.6539 -60.7960 19.3865 -29.8961 -5.2221 -0.0000 0.0000 -22.3686 -4.8088 11.8828 -0.9924 -7.1250 0.0000 -0.0000 -27.6441 40.1769 3.6091 -0.0000 -0.0000 0.0000 -58.2683 23.7836 -43.7773 -22.3457 33.3656 -6.7750 0.0000 -0.0000 -2.6778 -12.8187 -17.2310 3.8560 7.1250 -0.0000 -0.0000 14.3786 -47.0994 -0.7600
2.6884 13.1189 10.9064 5.5723 22.5546 30.1569 0.0000 0.0000 0.0000 -3.1025 16.2837 1.4326 0.8384 5.8408 16.3233 1.7891 19.8398 -38.6992 0.6645 -5.2133 -14.5179 0.0000 0.0000 0.0000 -22.2882 16.7340 -94.8456 -15.1315 -19.4220 75.6326 -0.1382 0.5156 -6.8553 -0.1372 2.3877 -6.5784 15.0647 -7.0153 25.5100 3.3891 -5.2292 14.2920 -3.3966 -1.7101 1.2484 -2.3749 -6.5022 6.5635 9.8659 -8.4847 -1.8035 3.8575 -4.4301 -1.1561 0.0000 0.0000 0.0000 75.0937 -37.5106 -63.4418 18.5810 -28.8947 -4.8267 -0.0000 0.0000 -19.5911 -0.5171 10.8018 -0.0969 -7.1250 0.0000 -0.0000 -23.7860 39.5863 3.3998 0.0000 0.0000 0.0000 -58.9973 23.9615 -45.6680 -22.1401 33.1349 -6.6622 0.0000 -0.0000 -3.8778 -14.2537 -17.0461 4.2589 7.1250 -0.0000 -0.0000 12.9948 -47.1076 -0.6870
2.6671 13.1049 10.9745 5.4666 22.3254 30.5433 0.0000 0.0000 0.0000 -3.3312 15.8685 1.9506 0.7294 5.4567 15.2158 1.7636 20.4742 -39.1695 0.6157 -5.0220 -13.9714 0.0000 0.0000 0.0000 -22.1075 16.7505 -95.4821 -15.2586 -19.4523 76.0146 -0.1513 1.0340 -7.0543 -0.1313 2.3353 -6.4333 15.1901 -7.0011 25.8590 3.5399 -5.1004 14.1685 -3.3061 -1.6695 0.9745 -2.5008 -6.3128 6.5475 9.6532 -8.2227 -2.3124 3.8214 -4.3075 -1.3413 0.0000 -0.0000 0.0000 75.8508 -37.3885 -66.0923 17.8820 -28.0058 -4.4937 -0.0000 0.0000 -16.9399 4.2878 9.6559 0.7205 -7.1250 0.0000 -0.0000 -19.4877 38.9151 3.0591 0.0000 -0.0000 0.0000 -59.7123 24.0831 -47.1730 -21.9133 32.8789 -6.5387 0.0000 -0.0000 -4.5708 -14.7143 -17.0878 4.4125 7.1250 -0.0000 -0.0000 12.5822 -47.2109 -0.6970
2.6458 13.0879 11.0410 5.3730 22.0494 30.9193 0.0000 0.0000 0.0000 -3.5775 15.5305 2.4461 0.6333 5.0917 14.1702 1.7372 21.0735 -39.6130 0.5676 -4.8250 -13.4101 0.0000 0.0000 0.0000 -21.9159 16.7657 -96.1364 -15.3906 -19.4828 76.4105 -0.1640 1.5963 -7.2571 -0.1260 2.2880 -6.3022 15.2593 -6.9793 26.1923 3.6501 -4.9783 14.0413 -3.2302 -1.6342 0.7002 -2.6679 -6.1262 6.5292 9.4916 -7.9707 -2.7733 3.8087 -4.1883 -1.5063 -0.0000 -0.0000 0.0000 76.5285 -37.2296 -68.5376 17.3112 -27.2662 -4.2289 -0.0000 0.0000 -14.5905 9.2269 8.4863 1.3733 -7.1250 0.0000 -0.0000 -15.0888 38.1595 2.6128 -0.0000 -0.0000 0.0000 -60.4065 24.1427 -48.2554 -21.6646 32.5959 -6.4042 0.0000 -0.0000 -4.7103 -14.2899 -17.3839 4.3518 7.1250 -0.0000 -0.0000 13.0711 -47.4485 -0.8028
2.6245 13.0682 11.1061 5.2805 21.7379 31.2824 0.0000 0.0000 0.0000 -3.8228 15.2585 2.9184 0.5489 4.7462 13.1862 1.7090 21.6328 -40.0183 0.5219 -4.6299 -12.8558 0.0000 0.0000 0.0000 -21.7031 16.7809 -96.8037 -15.5267 -19.5133 76.8181 -0.1762 2.1998 -7.4702 -0.1216 2.2482 -6.1921 15.2846 -6.9569 26.5078 3.7218 -4.8704 13.9157 -3.1715 -1.6064 0.4312 -2.8620 -5.9583 6.5053 9.3852 -7.7478 -3.1824 3.8183 -4.0820 -1.6486 0.0000 0.0000 0.0000 77.0897 -36.9942 -70.6119 16.8871 -26.7087 -4.0365 -0.0000 0.0000 -12.6668 13.9179 7.3339 1.8118 -7.1250 0.0000 -0.0000 -10.9380 37.3300 2.0950 0.0000 0.0000 0.0000 -61.0666 24.1421 -48.9164 -21.4126 32.3068 -6.2690 0.0000 -0.0000 -4.3856 -13.1307 -17.8573 4.0915 7.1250 -0.0000 -0.0000 14.3059 -47.7580 -0.9927
2.6035 13.0462 11.1699 5.1752 21.4038 31.6278 0.0000 0.0000 0.0000 -4.0463 15.0369 3.3713 0.4750 4.4199 12.2610 1.6781 22.1538 -40.3825 0.4797 -4.4414 -12.3218 0.0000 0.0000 0.0000 -21.4557 16.7989 -97.4779 -15.6662 -19.5436 77.2357 -0.1879 2.8396 -7.6998 -0.1187 2.2207 -6.1160 15.2809 -6.9380 26.8048 3.7608 -4.7792 13.7949 -3.1305 -1.5862 0.1716 -3.0601 -5.8246 6.4742 9.3286 -7.5724 -3.5397 3.8443 -3.9985 -1.7679 -0.0000 0.0000 0.0000 77.5092 -36.6617 -72.2089 16.6233 -26.3585 -3.9186 -0.0000 0.0000 -11.2362 18.0314 6.2362 2.0252 -7.1250 0.0000 -0.0000 -7.3313 36.4507 1.5516 -0.0000 0.0000 0.0000 -61.6769 24.0925 -49.1980 -21.1854 32.0441 -6.1480 0.0000 -0.0000 -3.7782 -11.4509 -18.3719 3.6530 7.1250 -0.0000 -0.0000 16.0472 -48.0286 -1.2287
2.5828 13.0223 11.2325 5.0433 21.0584 31.9498 0.0000 0.0000 0.0000 -4.2306 14.8498 3.8111 0.4102 4.1113 11.3901 1.6446 22.6441 -40.7121 0.4408 -4.2599 -11.8091 0.0000 0.0000 0.0000 -21.1613 16.8247 -98.1525 -15.8087 -19.5735 77.6613 -0.1992 3.5084 -7.9506 -0.1176 2.2106 -6.0882 15.2619 -6.9224 27.0853 3.7751 -4.7008 13.6787 -3.1068 -1.5714 -0.0786 -3.2336 -5.7376 6.4423 9.3121 -7.4580 -3.8475 3.8790 -3.9452 -1.8664 -0.0000 0.0000 0.0000 77.7793 -36.2301 -73.2872 16.5251 -26.2275 -3.8751 -0.0000 0.0000 -10.3165 21.3232 5.2281 2.0371 -7.1250 0.0000 -0.0000 -4.4768 35.5604 1.0410 -0.0000 0.0000 0.0000 -62.2211 24.0163 -49.1793 -21.0083 31.8381 -6.0543 0.0000 -0.0000 -3.1123 -9.5283 -18.8015 3.0965 7.1250 -0.0000 -0.0000 17.9871 -48.1746 -1.4526
2.5628 12.9967 11.2941 4.8756 20.7087 32.2441 0.0000 0.0000 0.0000 -4.3669 14.6833 4.2453 0.3533 3.8191 10.5682 1.6092 23.1156 -41.0212 0.4040 -4.0806 -11.3035 0.0000 0.0000 0.0000 -20.8128 16.8633 -98.8222 -15.9534 -19.6028 78.0928 -0.2103 4.1972 -8.2258 -0.1192 2.2255 -6.1292 15.2366 -6.9054 27.3532 3.7733 -4.6264 13.5631 -3.0976 -1.5581 -0.3238 -3.3508 -5.7030 6.4233 9.3212 -7.4096 -4.1115 3.9124 -3.9253 -1.9495 -0.0000 -0.0000 0.0000 77.9121 -35.7138 -73.8709 16.5856 -26.3082 -3.9019 -0.0000 0.0000 -9.8820 23.6439 4.3409 1.8979 -7.1250 0.0000 -0.0000 -2.4862 34.7083 0.6287 -0.0000 -0.0000 0.0000 -62.6873 23.9451 -48.9677 -20.8948 31.7054 -5.9946 0.0000 -0.0000 -2.6025 -7.6753 -19.0821 2.5227 7.1250 -0.0000 -0.0000 19.8021 -48.1824 -1.6138
2.5434 12.9700 11.3547 4.6681 20.3573 32.5080 0.0000 0.0000 0.0000 -4.4555 14.5269 4.6819 0.3033 3.5411 9.7890 1.5728 23.5831 -41.3289 0.3679 -3.8963 -10.7851 0.0000 0.0000 0.0000 -20.4099 16.9203 -99.4818 -16.0995 -19.6313 78.5279 -0.2213 4.8959 -8.5271 -0.1241 2.2709 -6.2549 15.2079 -6.8795 27.6138 3.7640 -4.5440 13.4416 -3.0981 -1.5413 -0.5718 -3.3831 -5.7185 6.4361 9.3391 -7.4219 -4.3398 3.9345 -3.9369 -2.0249 0.0000 0.0000 0.0000 77.9370 -35.1395 -74.0432 16.7807 -26.5678 -3.9888 -0.0000 0.0000 -9.8728 24.9333 3.6041 1.6739 -7.1250 0.0000 -0.0000 -1.3867 33.9507 0.3760 0.0000 0.0000 0.0000 -63.0713 23.9157 -48.6844 -20.8412 31.6426 -5.9664 0.0000 -0.0000 -2.4031 -6.1785 -19.2191 2.0409 7.1250 -0.0000 -0.0000 21.2250 -48.1027 -1.6963
